<svg xmlns="http://www.w3.org/2000/svg" width="30.34" height="30" viewBox="0 0 30.34 30">
  <defs>
    <style>
      .cls-1 {
        fill: #9c9c9c;
        fill-rule: evenodd;
      }
    </style>
  </defs>
  <path id="Twitter" class="cls-1" d="M1054.55,660a15,15,0,1,1-15.17,15A15.085,15.085,0,0,1,1054.55,660Zm-6.98,17.04a13.358,13.358,0,0,0,2.63.612,1.484,1.484,0,0,0,1.73-.652,0.31,0.31,0,0,0-.08-0.481s-2.94-.324-2.72-0.835c0,0-.01-0.289.39-0.223,0,0,.57-1.032.35-1.163,0,0-.35-0.288-0.07-0.314,0,0,.82.1,1.09,0.17,0,0,.18-0.062.01-0.18a0.858,0.858,0,0,1-.39-0.436s0.1-.222.54-0.039c0,0,.25-0.253.13-0.383,0,0-.38-0.21-0.2-0.381,0,0,.86-1,1.81.58,0,0,.24.3,0.26,0.013,0,0,1.17-3.1,2.7-3.35a0.842,0.842,0,0,0,.58-0.053,0.789,0.789,0,0,1,.57-0.025,0.231,0.231,0,0,0,.31.078s0.6-.223.42,0.144a2.806,2.806,0,0,1-.79.61c-0.21.012-.17,0.278,0.01,0.3,0,0,2.52.17,2.52,1.927,0,0,.15.417,0.63-0.016a5.392,5.392,0,0,1,.9-0.45s0.2-.117.17,0.158a3.3,3.3,0,0,1-1.05,1.076s-0.32.38,0.14,0.3a3,3,0,0,0,.66-0.2s0.54-.25.29,0.2a7.246,7.246,0,0,1-1.4.7,0.213,0.213,0,0,0-.17.183s-0.15,4.785-6.57,4.785a7.869,7.869,0,0,1-5.31-2.311S1047.25,676.973,1047.57,677.039Z" transform="translate(-1039.38 -660)"/>
</svg>
